<svg width="1440" height="802" viewBox="0 0 1440 802" fill="none" xmlns="http://www.w3.org/2000/svg">
<rect width="1440" height="506" fill="#1F27BA"/>
<path d="M224.228 605.888C214.989 616.615 209.823 628.33 209.858 640.53C210.01 693.529 307.346 736.25 427.165 735.906C471.702 735.778 513.283 729.659 547.617 719.36C610.377 767.18 727.35 799.045 861.412 798.66C1061.26 798.086 1222.93 726.022 1222.67 637.622C1222.66 634.922 1222.43 632.223 1222.2 629.523C1348.74 609.46 1439.47 555.799 1439.29 492.999C1439.06 413.5 1293.06 349.419 1113.33 349.935L281.375 352.323C121.541 352.782 -7.8356 410.454 -7.63263 481.153C-7.45492 543.053 92.1664 594.467 224.228 605.888Z" fill="#1F27BA"/>
</svg>
